<svg width="18" height="12" viewBox="0 0 18 12" fill="none" xmlns="http://www.w3.org/2000/svg">
<path fill-rule="evenodd" clip-rule="evenodd" d="M16.8703 1.46125C16.985 1.05147 16.8703 0.75029 16.3244 0.75029H14.5192C14.0602 0.75029 13.8488 1.01044 13.734 1.2974C13.734 1.2974 12.816 3.69485 11.5155 5.25216C11.0948 5.70297 10.9036 5.84624 10.6741 5.84624C10.5593 5.84624 10.3933 5.70297 10.3933 5.2932V1.46125C10.3933 0.969409 10.2601 0.75029 9.87753 0.75029H7.04093C6.75418 0.75029 6.58166 0.978527 6.58166 1.19488C6.58166 1.66117 7.23176 1.76865 7.29881 3.08005V5.92845C7.29881 6.55292 7.19359 6.66621 6.96409 6.66621C6.35216 6.66621 4.86371 4.25784 3.98076 1.50228C3.80773 0.966645 3.63418 0.75029 3.17284 0.75029H1.36773C0.851989 0.75029 0.74884 1.01044 0.74884 1.2974C0.74884 1.80968 1.3609 4.35068 3.59833 7.71124C5.09013 10.006 7.19153 11.2503 9.10392 11.2503C10.2514 11.2503 10.3933 10.974 10.3933 10.498V8.76345C10.3933 8.21082 10.502 8.10057 10.8652 8.10057C11.1331 8.10057 11.592 8.24397 12.6631 9.35048C13.8869 10.6617 14.0886 11.2503 14.7771 11.2503H16.5822C17.098 11.2503 17.3558 10.974 17.207 10.4287C17.0443 9.88515 16.46 9.09682 15.6846 8.16205C15.2638 7.62917 14.6327 7.0554 14.4416 6.76859C14.1738 6.3997 14.2503 6.23585 14.4416 5.90814C14.4416 5.90814 16.6408 2.58848 16.8703 1.46139V1.46125Z" fill="#F4F4F5"/>
</svg>
